<?xml version="1.0" encoding="UTF-8"?>
<svg id="Capa_1" xmlns="http://www.w3.org/2000/svg" version="1.1" viewBox="0 0 1024 1024">
  <!-- Generator: Adobe Illustrator 30.1.0, SVG Export Plug-In . SVG Version: 2.1.1 Build 136)  -->
  <path d="M808.71,847.74c-20.9,11.77-43.41,16.43-66.76,17.81-10.84.64-20.74,1.15-31.93,1.14l-408.29-.44c-29.83-.03-57.72-3.32-83.77-16.68-33.87-17.36-56.61-48.64-63.07-86.04-1.58-9.16-3.49-16.85-3.48-26.71l.17-450.6c.01-32.46,12.1-63.63,33.81-87.08,13.24-14.3,29.46-23.81,47.47-30.61,27.33-10.33,65.02-11.23,94.84-11.23l383.51.03c25.48,0,47.25,1.97,71.19,8.84,40.06,11.51,71.66,42.71,83.05,82.8,3.74,13.15,5.39,25.52,6.24,39.06l.9,14.33-.15,424.46-1.44,14.31c-1.14,11.31-2.69,22.15-5.57,33.11-8.25,31.41-27.96,57.29-56.71,73.48ZM279.28,505.55c4.38,18.24,19.69,34.22,39.44,34.22l379.44.1c15.64,0,29.46-11.34,36.19-23.43,4.96-8.9,3.85-16.94,3.83-26.52l-.37-172.65c-.04-20.49-18.38-38.39-38.67-38.43l-78.2-.15c-4.87,0-8.1-1.74-10.32-5.76l-12.87-23.27c-6.67-12.06-18.93-21.19-33.47-21.18l-107.43.08c-15.61.01-27.65,10.45-34.41,23.44-4.35,8.35-8.14,15.97-13.63,23.45-3.92,5.35-25.29,2.51-32.25,2.59.17-4.44.44-14.84-6.22-14.85l-45.88-.1c-8.62-.02-6.4,11.4-7.54,14.96-17.71,2.42-36.93,16.36-37,36.14l-.65,191.35ZM431.22,770.21l41.58-.16-28.55-83.88-38.03-112.28-45.63.06-67.2,196.09,41.78-.03,13.64-42.95,67.87.13,14.53,43.02ZM573.45,573.97l-45.94,156.02-46.11-156.15-43.97.07,65.09,196.16,50.71-.06,63.56-196.1-43.33.06ZM753.35,733.06l-81,.03-.67-159.15h-40.24s.57,196.12.57,196.12h121.39s-.03-37-.03-37Z"/>
  <g>
    <path d="M634.5,405.79c0,68-55.12,123.12-123.12,123.12s-123.12-55.12-123.12-123.12,55.12-123.12,123.12-123.12,123.12,55.12,123.12,123.12ZM504.13,473.56l32.85-139.74c-6.56-1.59-12.79-1-19.03-.57l-33.08,140.28c6.56.73,12.73.76,19.27.04ZM478.52,429.55l-33.37-25.28,33.27-24.28-.12-23.6-52.71,38.8.08,18.62,52.73,39.27.12-23.54ZM545.64,452.49l51.22-38.88c.4-6.31.62-12,.24-18.35l-51.51-37.86-.51,23.14,32.71,23.84-32.47,24.93.32,23.18Z"/>
    <polygon points="406.86 691.18 360.14 691.29 383.54 618.22 406.86 691.18"/>
  </g>
</svg>